<?xml version="1.0" standalone="no"?><!DOCTYPE svg PUBLIC "-//W3C//DTD SVG 1.1//EN" "http://www.w3.org/Graphics/SVG/1.1/DTD/svg11.dtd"><svg t="1599528898192" class="icon" viewBox="0 0 1024 1024" version="1.1" xmlns="http://www.w3.org/2000/svg" p-id="3179" xmlns:xlink="http://www.w3.org/1999/xlink" width="128" height="128"><defs><style type="text/css"></style></defs><path d="M900.19 1024H123.81c-31.62 0-57.143-25.524-57.143-57.143V57.143C66.667 25.523 92.19 0 123.81 0h575.238a36.952 36.952 0 0 1 0 73.905H140.952v875.428h742.096V318.095c0-20.571 16.762-36.952 36.952-36.952s36.952 16.762 36.952 36.952v649.143c0.381 31.238-25.523 56.762-56.762 56.762z m0 0" p-id="3180"></path><path d="M920 354.667H704.762c-23.62 0-43.048-19.429-43.048-43.048V36.952c0-16 9.905-30.095 25.143-35.047s31.62 0 41.524 12.571l95.238 124.953 124.952 154.666c9.143 11.048 10.667 26.286 4.572 39.238-6.095 12.953-19.048 21.334-33.143 21.334z m-184-73.905h106.286l-76.572-94.476c0-0.381-0.38-0.762-0.762-0.762L736 147.429v133.333zM548.571 394.667H259.81a36.952 36.952 0 0 1 0-73.905H548.57a36.952 36.952 0 0 1 0 73.905z m163.81 183.619H259.81a36.952 36.952 0 0 1 0-73.905H712.38a36.952 36.952 0 0 1 0 73.905zM507.81 761.905h-248a36.952 36.952 0 0 1 0-73.905h248a36.952 36.952 0 0 1 0 73.905z m0 0" p-id="3181"></path></svg>