<?xml version="1.0" standalone="no"?><!DOCTYPE svg PUBLIC "-//W3C//DTD SVG 1.1//EN" "http://www.w3.org/Graphics/SVG/1.1/DTD/svg11.dtd"><svg t="1599528788490" class="icon" viewBox="0 0 1256 1024" version="1.1" xmlns="http://www.w3.org/2000/svg" p-id="4879" xmlns:xlink="http://www.w3.org/1999/xlink" width="157" height="128"><defs><style type="text/css"></style></defs><path d="M1180.534853 247.947391H582.635686a60.156072 60.156072 0 0 1-56.873301-40.501534L471.821131 51.472161A76.457694 76.457694 0 0 0 399.558089 0H76.457694A76.457694 76.457694 0 0 0 0 76.457694v871.084612a76.457694 76.457694 0 0 0 76.457694 76.457694h1104.077159a76.457694 76.457694 0 0 0 76.457694-76.457694V324.405085a76.457694 76.457694 0 0 0-76.457694-76.457694zM76.457694 72.95046h323.100395a3.493205 3.493205 0 0 1 3.310828 2.356861l53.941254 155.973696a133.274879 133.274879 0 0 0 125.825515 89.616835H1180.534853a3.507234 3.507234 0 0 1 3.507234 3.507233v105.848313H83.542306a34.777729 34.777729 0 0 0-10.591846 1.641385V76.457694a3.507234 3.507234 0 0 1 3.507234-3.507234z m1104.077159 878.09908h-1104.077159a3.507234 3.507234 0 0 1-3.507234-3.507234V498.419991a34.777729 34.777729 0 0 0 10.591846 1.641386H1184.042087v447.523016a3.507234 3.507234 0 0 1-3.507234 3.465147z" p-id="4880"></path><path d="M588.219202 106.185007h622.8847a34.918018 34.918018 0 0 0 0-69.822008h-622.8847a34.918018 34.918018 0 1 0 0 69.822008z" p-id="4881"></path></svg>