<?xml version="1.0" standalone="no"?><!DOCTYPE svg PUBLIC "-//W3C//DTD SVG 1.1//EN" "http://www.w3.org/Graphics/SVG/1.1/DTD/svg11.dtd"><svg t="1599528772500" class="icon" viewBox="0 0 1253 1024" version="1.1" xmlns="http://www.w3.org/2000/svg" p-id="4731" xmlns:xlink="http://www.w3.org/1999/xlink" width="156.625" height="128"><defs><style type="text/css"></style></defs><path d="M584.621775 106.172432a34.918497 34.918497 0 0 1 0-69.822964h435.169487a34.918497 34.918497 0 0 1 0 69.822964zM174.873067 954.177036h856.871011a52.356702 52.356702 0 0 0 49.101944-34.357332l99.606801-271.996712a52.356702 52.356702 0 0 0-49.101944-70.370101H274.479867a52.370731 52.370731 0 0 0-49.172089 34.357332L125.700977 883.834993a52.38476 52.38476 0 0 0 49.17209 70.370101z m872.429313-446.547109V300.742393c0-28.661506-32.561603-52.931896-60.74612-52.931896H476.835993a35.072817 35.072817 0 0 1-33.908399-27.006069l-35.760245-149.550493H111.51753c-28.338836 0-41.680536 24.25636-41.680536 52.791605V833.330137l89.912674-245.509721a122.179666 122.179666 0 0 1 114.730199-80.162431z m69.822964 0h14.225535a122.165637 122.165637 0 0 1 114.730199 164.140784l-99.6068 272.010742a122.179666 122.179666 0 0 1-114.7302 80.218547h-920.310723C44.682769 1024 0 970.254415 0 902.732227V123.456317C0 55.934129 44.682769 0 111.433355 0h323.160937A35.072817 35.072817 0 0 1 468.572838 26.949953l35.774273 149.522434h482.223178c66.750586 0 130.639229 55.948158 130.47088 123.456317z" p-id="4732"></path></svg>